<svg width="159" height="60" viewBox="0 0 159 60" fill="none" xmlns="http://www.w3.org/2000/svg">
<path d="M26.2911 0.248576C25.9779 0.248833 25.6476 0.249103 25.3382 0.286036C21.74 0.586187 18.4335 2.11468 16.0787 4.89924C13.5162 7.92955 12.8965 11.1223 12.9265 14.9801L6.07138 14.9696C5.76431 14.9694 5.4469 14.9606 5.125 14.9517C4.23061 14.9269 3.30162 14.9012 2.46379 15.0547C1.95852 15.1473 1.51764 15.393 1.1623 15.7629C0.540184 16.4106 0.525067 17.2286 0.565492 18.0667C0.629252 19.3881 0.742741 20.7112 0.8561 22.0328C0.917767 22.7518 0.979449 23.4709 1.03304 24.1889L2.17084 38.8906L2.72444 45.9903C2.75171 46.3408 2.77349 46.6947 2.79536 47.0501C2.87355 48.3207 2.95288 49.6099 3.28831 50.8255C3.8678 52.8923 5.01628 54.7545 6.60288 56.2011C7.98949 57.4602 9.66549 58.3585 11.4823 58.8155C13.019 59.1864 14.8043 59.1444 16.4812 59.105C16.9804 59.0933 17.4699 59.0818 17.9404 59.0814L27.169 59.0786L35.2289 59.0821C35.6692 59.0821 36.1225 59.0929 36.5813 59.1038C38.0701 59.1392 39.6218 59.1761 41.013 58.8519C42.9701 58.3963 44.9506 57.3219 46.3794 55.9052C47.709 54.5863 48.7713 52.8253 49.2355 51.0059C49.5907 49.614 49.6798 48.0872 49.7663 46.6062C49.7941 46.1288 49.8217 45.6558 49.8579 45.1939L50.6143 35.4569L51.5575 23.5013C51.6032 22.9108 51.6623 22.314 51.7214 21.7159C51.8497 20.4196 51.979 19.1135 51.976 17.8324C51.9746 17.0444 51.8078 16.3093 51.2431 15.7241C50.8546 15.3208 50.2193 15.1239 49.6818 15.0362C48.876 14.9048 47.9924 14.9283 47.1377 14.9509C46.8217 14.9593 46.5096 14.9676 46.2069 14.9679C44.0509 14.9637 41.8942 14.9713 39.7383 14.9907L39.6456 14.992C39.6962 10.8606 38.7765 7.31549 35.8064 4.29394C33.3246 1.72248 29.9096 0.263507 26.3363 0.248535L26.2911 0.248576ZM39.3568 23.814L39.4731 23.8207C39.4761 23.8286 39.479 23.8359 39.4818 23.8427C39.4832 23.8463 39.4846 23.8497 39.486 23.853C39.4911 23.8654 39.4957 23.876 39.4997 23.8853L39.5046 23.8964C39.5258 23.9447 39.5297 23.9535 39.5287 24.0313C39.4916 29.0972 38.1356 35.6194 34.5402 39.3296C31.2107 42.7653 26.0404 44.4512 21.3254 44.5446C23.5216 40.414 27.0507 36.4967 30.691 33.5873C31.2539 33.1377 31.8433 32.7314 32.433 32.3247C32.8127 32.0629 33.1925 31.801 33.5656 31.5274C33.9277 31.2616 34.4154 30.901 34.4667 30.4164C34.5138 29.97 34.2764 29.6236 33.9969 29.3047C33.6055 29.0778 33.3189 28.9831 32.8719 29.1143C32.2373 29.3006 31.5977 29.7701 31.0206 30.1939C30.8677 30.3061 30.7191 30.4152 30.5762 30.515C25.9085 33.8202 22.03 38.117 19.2185 43.0973C19.1237 39.0454 20.0464 35.651 22.5314 32.3917C26.2607 27.5004 33.3987 24.6257 39.3568 23.814ZM3.12276 17.5072L49.4322 17.5065C49.2679 19.0662 49.1614 20.6402 49.0551 22.2116C48.9959 23.0871 48.9367 23.9625 48.8676 24.834L47.6206 40.4597L47.1544 46.2177C47.1336 46.4677 47.1147 46.719 47.0957 46.9708C47.0209 47.9642 46.9454 48.9667 46.7537 49.9393C46.5569 50.9374 46.1748 51.8051 45.6572 52.6756C45.4575 52.9786 45.2408 53.2702 45.0084 53.549C43.6659 55.1531 41.4622 56.348 39.369 56.5063C38.2291 56.5923 37.0564 56.5708 35.8946 56.5494C35.3918 56.5402 34.8908 56.5309 34.3954 56.5305L24.7878 56.5277L17.1424 56.5312C16.7736 56.5314 16.3983 56.5391 16.0202 56.547C14.8607 56.571 13.6735 56.5955 12.5591 56.4036C11.0974 56.1484 9.73136 55.5046 8.60497 54.5392C7.25572 53.4014 6.28739 51.8778 5.83053 50.1731C5.518 49.0432 5.44007 47.8393 5.36355 46.6572C5.34433 46.3603 5.32519 46.0648 5.30245 45.7721L4.84774 39.9134L3.12276 17.5072ZM40.3852 21.0989L40.3507 21.1026C33.3211 21.9158 25.3182 24.8072 20.7744 30.5016C17.8539 34.1613 16.2583 38.9216 16.7853 43.6092C16.901 44.6385 17.1341 45.6224 17.4701 46.6013C17.4321 46.6985 17.3857 46.815 17.333 46.9477C16.7561 48.3977 15.4151 51.7679 15.8815 52.7647C16.0164 53.0527 16.2911 53.2459 16.5891 53.3408C16.7119 53.3793 16.8355 53.4014 16.9632 53.4163C17.3571 53.3515 17.7211 53.2702 17.9582 52.918C18.2127 52.539 18.4734 51.6288 18.6963 50.8503C18.8025 50.4794 18.9002 50.1383 18.9847 49.8987C19.2735 49.0782 19.6014 48.2713 19.9289 47.4654L19.9327 47.456C19.9711 47.3617 20.0094 47.2674 20.0477 47.1731C25.8444 47.1902 32.0356 45.3757 36.2292 41.238C40.9189 36.6098 42.1003 29.1468 42.1096 22.8312C42.1103 22.3332 42.076 21.7423 41.7117 21.3614C41.4879 21.1271 41.1506 21.0566 40.8377 21.0635C40.6866 21.0668 40.5356 21.0829 40.3852 21.0989ZM25.7275 2.78143C25.952 2.76752 26.1773 2.75498 26.4019 2.75654C29.1553 2.77587 31.9123 4.00734 33.8472 5.94784C36.4816 8.5901 37.0206 11.394 37.0263 14.9803L26.938 14.9748L15.5861 14.989C15.4993 11.9062 15.9958 9.09059 18.0182 6.65644C19.9611 4.31804 22.7339 3.04885 25.7275 2.78143Z" fill="#030A06"/>
<path d="M39.4732 23.8206L39.357 23.8139C33.3989 24.6257 26.2608 27.5004 22.5316 32.3917C20.0465 35.651 19.1238 39.0453 19.2186 43.0973C22.0301 38.1169 25.9087 33.8201 30.5763 30.5149C30.7192 30.4152 30.8679 30.3061 31.0207 30.1938C31.5979 29.7701 32.2374 29.3005 32.872 29.1143C33.319 28.9831 33.6056 29.0778 33.997 29.3047C34.2765 29.6235 34.5139 29.9699 34.4669 30.4163C34.4155 30.901 33.9279 31.2616 33.5657 31.5274C33.1926 31.801 32.8128 32.0629 32.4331 32.3247C31.8434 32.7313 31.2541 33.1377 30.6911 33.5873C27.0508 36.4967 23.5217 40.414 21.3255 44.5446C26.0405 44.4512 31.2108 42.7653 34.5403 39.3295C38.1357 35.6194 39.4917 29.0971 39.5288 24.0312C39.5298 23.9535 39.526 23.9447 39.5047 23.8964C39.4996 23.8848 39.4934 23.8706 39.4861 23.853C39.4822 23.8434 39.4779 23.8327 39.4732 23.8206ZM40.3509 21.1026L40.3853 21.0989C40.5358 21.0829 40.6868 21.0668 40.8378 21.0634C41.1508 21.0565 41.488 21.1271 41.7119 21.3614C42.0762 21.7422 42.1104 22.3331 42.1097 22.8311C42.1004 29.1468 40.9191 36.6098 36.2293 41.238C32.0357 45.3757 25.8445 47.1901 20.0478 47.173C20.0095 47.2674 19.9712 47.3617 19.9329 47.456L19.9291 47.4654C19.6015 48.2713 19.2736 49.0782 18.9848 49.8986C18.9004 50.1383 18.8027 50.4793 18.6965 50.8502C18.4735 51.6287 18.2128 52.5389 17.9583 52.918C17.7212 53.2702 17.3572 53.3514 16.9634 53.4163C16.8356 53.4013 16.712 53.3792 16.5892 53.3407C16.2913 53.2459 16.0165 53.0527 15.8816 52.7647C15.4152 51.7679 16.7562 48.3976 17.3331 46.9476C17.3859 46.815 17.4323 46.6984 17.4703 46.6012C17.1343 45.6224 16.9011 44.6385 16.7854 43.6091C16.2584 38.9216 17.854 34.1613 20.7745 30.5015C25.3183 24.8071 33.3212 21.9158 40.3509 21.1026Z" fill="#030A06"/>
<path d="M40.3853 21.0989L40.3509 21.1026C33.3212 21.9158 25.3184 24.8071 20.7745 30.5015C17.854 34.1613 16.2584 38.9216 16.7854 43.6091C16.9012 44.6385 17.1343 45.6224 17.4703 46.6012C17.4323 46.6984 17.3859 46.815 17.3331 46.9476C16.7562 48.3976 15.4153 51.7679 15.8816 52.7647C16.0165 53.0527 16.2913 53.2459 16.5892 53.3407C16.712 53.3792 16.8356 53.4013 16.9634 53.4163C17.3572 53.3514 17.7213 53.2702 17.9583 52.918C18.2129 52.5389 18.4734 51.6292 18.6963 50.8507C18.8026 50.4797 18.9003 50.1384 18.9848 49.8986C19.2736 49.0782 19.6016 48.2713 19.9291 47.4654C19.9303 47.4623 19.9316 47.4591 19.9329 47.456C19.9712 47.3617 20.0096 47.2674 20.0478 47.173C25.8445 47.1901 32.0358 45.3757 36.2293 41.238C40.9191 36.6098 42.1004 29.1468 42.1097 22.8311C42.1104 22.3331 42.0762 21.7422 41.7119 21.3614C41.488 21.1271 41.1508 21.0565 40.8378 21.0634C40.6868 21.0668 40.5358 21.0829 40.3853 21.0989ZM39.357 23.8139L39.4732 23.8206C39.4779 23.8327 39.4822 23.8434 39.4861 23.853C39.4935 23.8708 39.4996 23.8847 39.5047 23.8963C39.526 23.9447 39.5299 23.9535 39.5288 24.0312C39.4918 29.0971 38.1357 35.6194 34.5403 39.3295C31.2109 42.7653 26.0406 44.4512 21.3256 44.5446C23.5217 40.414 27.0508 36.4967 30.6911 33.5873C31.2541 33.1377 31.8434 32.7313 32.4331 32.3247C32.8128 32.0629 33.1927 31.801 33.5657 31.5274C33.9279 31.2616 34.4156 30.901 34.4669 30.4163C34.5139 29.9699 34.2765 29.6235 33.9971 29.3047C33.6057 29.0778 33.319 28.9831 32.872 29.1143C32.2374 29.3005 31.5979 29.7701 31.0208 30.1938C30.8679 30.3061 30.7192 30.4152 30.5763 30.5149C25.9087 33.8201 22.0302 38.1169 19.2187 43.0973C19.1238 39.0453 20.0465 35.651 22.5316 32.3917C26.2609 27.5004 33.3989 24.6257 39.357 23.8139Z" fill="#030A06"/>
<path d="M130.9 38.2661C130.724 33.2867 126.546 29.3932 121.567 29.5682C116.587 29.7424 112.692 33.9223 112.868 38.9016C113.043 43.8817 117.223 47.7761 122.203 47.6003C127.182 47.4237 131.075 43.2446 130.9 38.2661ZM121.88 32.275C123.333 32.3338 124.51 32.683 125.617 33.6638C126.937 34.8314 127.673 36.5185 127.769 38.266C127.866 40.0152 127.316 41.7881 126.125 43.091C125.037 44.2818 123.68 44.8147 122.09 44.8943C120.639 44.8791 119.442 44.6532 118.297 43.7011C116.96 42.5891 116.204 40.9426 116.062 39.2245C115.915 37.438 116.383 35.591 117.568 34.2205C118.745 32.862 120.134 32.3943 121.88 32.275Z" fill="#030A06"/>
<path d="M105.826 37.5196C105.233 32.5681 100.734 29.0389 95.7837 29.6418C90.847 30.2431 87.3291 34.7277 87.9209 39.6656C88.5128 44.6036 92.9909 48.1297 97.9299 47.5474C102.882 46.9628 106.42 42.4703 105.826 37.5196ZM96.0725 32.3486C97.5169 32.2308 98.8255 32.3828 100.045 33.2219C101.415 34.1637 102.276 35.6185 102.561 37.2436C102.884 39.0889 102.58 41.0624 101.47 42.5999C100.498 43.9466 99.2836 44.6147 97.6658 44.8724C96.1879 44.948 94.8823 44.8581 93.6376 43.9776C92.2952 43.0318 91.3907 41.585 91.1285 39.9639C90.8269 38.1758 91.1883 36.1181 92.2557 34.6306C93.1938 33.3238 94.5035 32.5991 96.0725 32.3486Z" fill="#030A06"/>
<path d="M149.813 29.5575C149.769 29.5591 149.725 29.5623 149.68 29.5679C147.409 29.8359 145.364 30.9352 143.937 32.7376C142.308 34.7954 141.748 37.4043 142.07 39.9847C142.333 42.2508 143.493 44.3173 145.29 45.7244C147.418 47.3781 150.117 47.7981 152.747 47.4385C154.268 47.2301 156.555 46.5015 157.528 45.2352C157.802 44.8797 157.939 44.4454 157.876 43.9967C157.832 43.6818 157.693 43.3803 157.434 43.187C157.136 42.9651 156.738 42.9373 156.384 43.0065C155.892 43.1024 155.451 43.4066 155.033 43.6952C154.945 43.756 154.857 43.8161 154.771 43.8735C152.934 44.828 150.897 45.2766 148.877 44.6219C147.44 44.1487 146.252 43.117 145.584 41.7584C145.236 41.064 145.062 40.3267 144.908 39.5703H153.575C153.936 39.5707 154.323 39.5831 154.721 39.5959C155.749 39.6288 156.849 39.6641 157.756 39.5018C158.015 39.4557 158.261 39.3173 158.449 39.1344C158.875 38.7192 158.951 38.1313 158.938 37.5642C158.89 35.3927 157.87 33.2507 156.29 31.7815C154.466 30.0849 152.266 29.447 149.813 29.5575ZM150.08 32.2707C151.396 32.1164 152.723 32.4521 153.807 33.2149C155.103 34.136 155.784 35.4436 156.056 36.9828C154.958 36.996 153.857 36.993 152.758 36.99C152.208 36.9885 151.658 36.987 151.109 36.9876L145.013 36.9955C145.292 36.0577 145.616 35.2058 146.215 34.4199C147.182 33.1544 148.52 32.4759 150.08 32.2707Z" fill="#030A06"/>
<path d="M101.539 23.1107C104.792 23.0336 108.063 23.1052 111.319 23.0996C113.173 23.0964 115.541 22.9461 117.341 23.1314C117.631 23.1616 117.862 23.2436 118.082 23.4361C118.395 23.7097 118.604 24.1225 118.615 24.5409C118.624 24.9187 118.393 25.3522 118.12 25.606C117.912 25.7985 117.664 25.8756 117.389 25.9202C116.64 26.0411 115.813 25.9703 115.052 25.9695L111.013 25.9623L111.012 40.9527C111.017 42.2159 111.177 44.9712 110.987 46.0458C110.927 46.3831 110.805 46.7195 110.572 46.978C110.323 47.2556 109.978 47.3956 109.608 47.4036C109.219 47.4123 108.841 47.3272 108.561 47.0448C108.232 46.7147 108.111 46.2288 108.07 45.7778C107.995 44.9457 108.064 44.0652 108.073 43.2292C108.088 41.9924 108.076 40.7547 108.076 39.5178L108.085 25.9599C106.742 25.9663 102.092 26.1803 101.14 25.7483C100.792 25.5909 100.574 25.3475 100.447 24.9855C100.313 24.6006 100.374 24.1901 100.569 23.837C100.796 23.4233 101.1 23.246 101.539 23.1107Z" fill="#030A06"/>
<path d="M80.2581 29.5689C81.4666 29.5005 82.6474 29.5777 83.8208 29.8919C85.0598 30.2236 86.9547 30.9546 87.5952 32.1302C87.7713 32.4539 87.8632 32.8413 87.739 33.1992C87.6118 33.5643 87.2651 33.8435 86.9157 33.9867C85.8967 34.4043 84.6209 33.0004 83.6623 32.6392C82.1033 32.0514 80.2285 32.084 78.7119 32.792C77.3185 33.4426 76.3167 34.6747 75.7979 36.1057C75.1958 37.7665 75.145 39.9324 75.9094 41.5511C76.6181 43.0513 77.9222 44.0996 79.4691 44.6461C81.2392 45.2721 83.0835 44.9388 84.7376 44.1458C85.2502 43.8682 85.7157 43.4983 86.2997 43.3774C86.6015 43.3153 86.8995 43.3479 87.1568 43.5261C87.4735 43.7457 87.7296 44.18 87.7716 44.5633C87.8111 44.9229 87.6713 45.2538 87.4482 45.5298C86.4804 46.7293 84.3264 47.3322 82.8603 47.512C80.316 47.8238 77.6659 47.3139 75.6297 45.6905C73.7157 44.1943 72.4978 41.9798 72.2596 39.5626C72.0074 37.154 72.7137 34.7431 74.2256 32.8516C75.7582 30.9673 77.8495 29.8267 80.2581 29.5689Z" fill="#030A06"/>
<path d="M134.6 25.0163C134.651 25.0139 134.701 25.0115 134.751 25.0099C135.202 24.9956 135.656 25.1165 135.974 25.449C136.735 26.2436 136.433 28.921 136.424 30.0171C137.46 30.0234 139.979 29.7013 140.756 30.3917C141.037 30.6423 141.151 30.9891 141.152 31.3589C141.153 31.7177 141.06 32.0613 140.794 32.3142C140.068 33.0015 137.449 32.731 136.422 32.7247C136.432 34.9264 136.134 41.7129 136.813 43.3833C137.91 46.0845 140.287 43.7086 141.643 44.3473C141.934 44.4841 142.172 44.7729 142.279 45.0735C142.432 45.5015 142.296 45.884 142.12 46.277C142.09 46.3104 142.059 46.343 142.029 46.3756C141.21 47.2291 139.671 47.4343 138.54 47.4502C137.229 47.4693 135.989 47.2466 135.02 46.2762C134.32 45.5746 133.885 44.6122 133.672 43.6545C133.342 42.175 133.478 40.5373 133.479 39.0284L133.483 32.7271C132.688 32.7263 131.892 32.7207 131.096 32.708C130.965 32.626 130.837 32.5417 130.722 32.4375C130.407 32.1544 130.264 31.732 130.253 31.316C130.243 30.9676 130.35 30.624 130.61 30.383C131.253 29.788 132.666 30.0012 133.483 30.0155C133.481 28.8693 133.229 26.8139 133.662 25.8053C133.855 25.3575 134.169 25.1953 134.6 25.0163Z" fill="#030A06"/>
<path fill-rule="evenodd" clip-rule="evenodd" d="M71.4928 24.5878C70.1223 24.4531 63.414 24.5008 61.0868 24.535C60.6589 24.5413 60.2621 24.5705 59.9135 24.5962C59.617 24.618 59.3554 24.6373 59.1395 24.6377C59.1395 24.6377 58.2133 24.855 57.9131 25.2722C57.7167 25.5454 57.6496 25.8921 57.6027 26.2183C57.3541 27.9512 57.2086 29.7193 57.0636 31.4815C56.9873 32.409 56.9111 33.3348 56.82 34.253L55.9374 43.161C55.914 43.3991 55.8733 43.7242 55.827 44.0932C55.6776 45.2864 55.4705 46.9391 55.6045 47.5969C55.6785 47.9615 55.8717 48.2626 56.1941 48.4526C56.5122 48.6402 56.8726 48.7468 57.2347 48.8083L57.238 48.8083C57.9864 48.8067 59.115 48.8184 60.376 48.8315C62.9905 48.8585 69.6388 48.8915 71.1847 48.825C71.4929 48.8114 71.8196 48.7852 72.1102 48.6754C72.5004 48.5275 72.8211 48.2451 72.9754 47.8522C73.1308 47.4568 73.0964 47.0138 72.9201 46.632C72.743 46.247 72.5035 46.0418 72.102 45.9129H58.7395C58.9625 43.9456 59.1618 41.9759 59.3375 40.0038L59.4953 38.4009L59.5106 38.242C59.615 38.2433 59.7525 38.2454 59.9158 38.2478C61.2768 38.2684 67.901 38.3161 68.745 38.1902C69.0548 38.1441 69.3441 38.0661 69.5708 37.8379C69.8641 37.542 69.986 37.1331 69.9617 36.7227C69.9412 36.3743 69.787 35.9949 69.5222 35.7602C69.3454 35.6043 69.1264 35.5033 68.8927 35.4707C68.1038 35.3559 62.2145 35.387 60.7278 35.4061C60.329 35.4112 59.9977 35.4155 59.7836 35.4158L60.4609 27.4243H67.672C68.0397 27.4245 68.4227 27.4368 68.8115 27.4492C69.7526 27.4794 70.728 27.5106 71.6032 27.3749C71.9145 27.3272 72.1814 27.2206 72.4072 26.9939C72.6837 26.7163 72.835 26.2964 72.8138 25.9066C72.7921 25.5089 72.5781 25.1303 72.267 24.8861C72.0299 24.7 71.7898 24.6164 71.4928 24.5878Z" fill="#030A06"/>
</svg>
