<svg aria-hidden="true" style="position: absolute; width: 0; height: 0; overflow: hidden;" version="1.1" xmlns="http://www.w3.org/2000/svg">
  <defs>
    <symbol id="icon-burger" viewBox="0 0 32 32">
      <path d="M5.333 8h21.333v2.667h-21.333v-2.667zM5.333 14.667h21.333v2.667h-21.333v-2.667zM5.333 21.333h21.333v2.667h-21.333v-2.667z"></path>
    </symbol>

    <symbol id="icon-stars" viewBox="0 0 32 32">
      <path d="M14.513 1.727c0.55-1.306 2.423-1.306 2.973 0l3.246 7.71c0.232 0.551 0.756 0.927 1.358 0.975l8.426 0.667c1.428 0.113 2.006 1.873 0.919 2.793l-6.419 5.432c-0.459 0.388-0.659 0.997-0.519 1.577l1.961 8.123c0.332 1.376-1.183 2.464-2.405 1.727l-7.214-4.353c-0.515-0.311-1.163-0.311-1.678 0l-7.214 4.353c-1.222 0.737-2.738-0.35-2.405-1.727l1.961-8.123c0.14-0.58-0.060-1.189-0.519-1.577l-6.42-5.432c-1.088-0.92-0.509-2.68 0.919-2.793l8.426-0.667c0.602-0.048 1.126-0.424 1.358-0.975l3.246-7.71z"/>
    </symbol>

    <symbol id="icon-instagram" viewBox="0 0 32 32">
      <path d="M15.999 9.836a6.165 6.165 0 1 0 0 12.33 6.165 6.165 0 1 0 0-12.33zm0 10.169a4.005 4.005 0 1 1 0-8.01 4.005 4.005 0 1 1 0 8.01zm6.409-11.833a1.437 1.437 0 0 0 0 2.874 1.437 1.437 0 0 0 0-2.874z"/>
      <path d="M27.377 8.148a6.167 6.167 0 0 0-3.469-3.495l-.042-.014a8.626 8.626 0 0 0-2.905-.56h-.009c-1.284-.056-1.691-.072-4.947-.072s-3.673 0-4.947.072a8.782 8.782 0 0 0-2.972.58l.06-.02A6.17 6.17 0 0 0 4.65 8.107l-.014.042a8.631 8.631 0 0 0-.559 2.905v.009c-.057 1.283-.075 1.689-.075 4.947s0 3.671.075 4.947a8.79 8.79 0 0 0 .559 2.916 6.17 6.17 0 0 0 3.47 3.495l.042.014c.86.347 1.856.564 2.899.6h.015c1.284.056 1.691.073 4.947.073s3.673 0 4.947-.073a8.804 8.804 0 0 0 2.975-.579l-.06.02a6.18 6.18 0 0 0 3.496-3.469l.015-.042a8.769 8.769 0 0 0 .559-2.915c.057-1.283.075-1.689.075-4.947s0-3.671-.075-4.947a8.768 8.768 0 0 0-.582-3.016l.02.06zm-1.624 12.709a6.642 6.642 0 0 1-.43 2.297l.015-.046a4.009 4.009 0 0 1-2.256 2.272l-.027.009a6.543 6.543 0 0 1-2.222.415h-.005c-1.267.059-1.624.073-4.872.073-3.251 0-3.583 0-4.873-.073a6.636 6.636 0 0 1-2.271-.43l.046.015a4.013 4.013 0 0 1-2.283-2.254l-.009-.027a6.653 6.653 0 0 1-.415-2.219v-.006c-.057-1.267-.071-1.624-.071-4.872s0-3.581.071-4.873a6.65 6.65 0 0 1 .43-2.295l-.015.046a3.984 3.984 0 0 1 2.292-2.283 6.555 6.555 0 0 1 2.22-.415h.005c1.268-.057 1.624-.073 4.873-.073s3.583 0 4.872.073a6.652 6.652 0 0 1 2.273.43l-.046-.015a4.022 4.022 0 0 1 2.273 2.256l.009.027c.25.66.401 1.423.415 2.219v.006c.057 1.268.072 1.624.072 4.873s0 3.597-.057 4.872z"/></symbol>
    <symbol id="icon-linkedin" viewBox="0 0 32 32">
      <path d="M26.667 4H5.334c-.736 0-1.333.597-1.333 1.333v21.333c0 .736.597 1.333 1.333 1.333h21.333c.736 0 1.333-.597 1.333-1.333V5.333C28 4.597 27.403 4 26.667 4zM11.119 24.449H7.556V12.996h3.563zM9.337 11.432a2.064 2.064 0 1 1 0-4.128 2.064 2.064 0 1 1 0 4.128zm15.114 13.017h-3.559V18.88c0-1.328-.024-3.036-1.851-3.036-1.853 0-2.135 1.448-2.135 2.943v5.664H13.35V12.998h3.413v1.565h.049c.473-.9 1.636-1.849 3.365-1.849 3.605 0 4.271 2.371 4.271 5.456v6.28z"/></symbol>
    <symbol id="icon-youtube" viewBox="0 0 32 32">
      <path d="M28.791 9.604a3.346 3.346 0 0 0-2.326-2.349l-.023-.006c-2.088-.573-10.441-.583-10.441-.583s-8.352-.009-10.441.539a3.429 3.429 0 0 0-2.349 2.347l-.006.024c-.551 2.088-.556 6.419-.556 6.419s-.005 4.352.541 6.419a3.341 3.341 0 0 0 2.351 2.353c2.109.573 10.44.583 10.44.583s8.353.009 10.441-.537a3.374 3.374 0 0 0 2.35-2.327l.006-.024c.552-2.087.556-6.416.556-6.416s.027-4.353-.543-6.441zM13.328 20.007l.007-8 6.943 4.007z"/></symbol>

      <symbol id="icon-x" viewBox="0 0 32 32">
        <path d="M21.589 8.459l-5.657 5.656-5.656-5.656-1.885 1.885 5.656 5.656-5.656 5.656 1.885 1.885 5.656-5.656 5.657 5.656 1.885-1.885-5.656-5.656 5.656-5.656-1.885-1.885z"/>
      </symbol>

  </defs>
</svg>
