<svg aria-hidden="true" style="position: absolute; width: 0; height: 0; overflow: hidden;" version="1.1" xmlns="http://www.w3.org/2000/svg">
  <defs>
    <symbol id="icon-burger" viewBox="0 0 32 32">
      <path d="M5.333 8h21.333v2.667h-21.333v-2.667zM5.333 14.667h21.333v2.667h-21.333v-2.667zM5.333 21.333h21.333v2.667h-21.333v-2.667z"></path>
    </symbol>
    <symbol id="icon-instagram" viewBox="0 0 32 32">
      <path d="M21.435 4.864h-10.24c-3.535 0-6.4 2.865-6.4 6.4v10.24c0 3.535 2.865 6.4 6.4 6.4h10.24c3.535 0 6.4-2.865 6.4-6.4v-10.24c0-3.535-2.865-6.4-6.4-6.4zM25.595 21.504c-0.007 2.295-1.865 4.153-4.16 4.16h-10.24c-2.295-0.007-4.153-1.865-4.16-4.16v-10.24c0.007-2.295 1.865-4.153 4.16-4.16h10.24c2.295 0.007 4.153 1.865 4.16 4.16v10.24zM22.395 11.584c0.707 0 1.28-0.573 1.28-1.28s-0.573-1.28-1.28-1.28c-0.707 0-1.28 0.573-1.28 1.28s0.573 1.28 1.28 1.28zM16.315 10.624c-3.181 0-5.76 2.579-5.76 5.76s2.579 5.76 5.76 5.76c3.181 0 5.76-2.579 5.76-5.76 0.003-1.529-0.602-2.996-1.683-4.077s-2.548-1.687-4.077-1.683zM12.795 16.384c0 1.944 1.576 3.52 3.52 3.52s3.52-1.576 3.52-3.52c0-1.944-1.576-3.52-3.52-3.52s-3.52 1.576-3.52 3.52z"></path>
    </symbol>
    <symbol id="icon-linkedIn" viewBox="0 0 32 32">
      <path d="M6.715 4.864c-1.060 0-1.92 0.86-1.92 1.92v19.2c0 1.060 0.86 1.92 1.92 1.92h19.2c1.060 0 1.92-0.86 1.92-1.92v-19.2c0-1.060-0.86-1.92-1.92-1.92h-19.2zM11.862 9.988c0.007 1.224-0.909 1.978-1.996 1.973-1.024-0.005-1.917-0.821-1.912-1.971 0.005-1.082 0.86-1.951 1.971-1.926 1.127 0.025 1.944 0.851 1.937 1.924zM16.673 13.52h-3.227v10.957h3.409v-0.256c0-0.486-0-0.973-0.001-1.459-0.001-1.298-0.002-2.597 0.004-3.894 0.002-0.315 0.016-0.643 0.097-0.943 0.304-1.123 1.314-1.849 2.441-1.67 0.724 0.113 1.202 0.533 1.404 1.215 0.124 0.427 0.18 0.886 0.185 1.33 0.015 1.341 0.013 2.682 0.011 4.023-0.001 0.473-0.002 0.947-0.002 1.42v0.232h3.42v-0.263c0-0.579-0-1.157-0.001-1.735-0.001-1.446-0.001-2.892 0.002-4.338 0.002-0.653-0.068-1.298-0.229-1.93-0.239-0.94-0.734-1.717-1.539-2.279-0.571-0.4-1.197-0.657-1.897-0.686-0.080-0.003-0.16-0.008-0.241-0.012-0.358-0.019-0.722-0.039-1.064 0.030-0.979 0.196-1.84 0.644-2.489 1.434-0.076 0.091-0.149 0.183-0.26 0.32l-0.025 0.031v-1.528zM8.227 24.48h3.393v-10.953h-3.393v10.953z"></path>
    </symbol>
    <symbol id="icon-stars" viewBox="0 0 32 32">
      <path d="M14.513 1.727c0.55-1.306 2.423-1.306 2.973 0l3.246 7.71c0.232 0.551 0.756 0.927 1.358 0.975l8.426 0.667c1.428 0.113 2.006 1.873 0.919 2.793l-6.419 5.432c-0.459 0.388-0.659 0.997-0.519 1.577l1.961 8.123c0.332 1.376-1.183 2.464-2.405 1.727l-7.214-4.353c-0.515-0.311-1.163-0.311-1.678 0l-7.214 4.353c-1.222 0.737-2.738-0.35-2.405-1.727l1.961-8.123c0.14-0.58-0.060-1.189-0.519-1.577l-6.42-5.432c-1.088-0.92-0.509-2.68 0.919-2.793l8.426-0.667c0.602-0.048 1.126-0.424 1.358-0.975l3.246-7.71z"></path>
    </symbol>
    <symbol id="icon-youtube" viewBox="0 0 32 32">
      <path d="M28.594 9.934c-0.146-0.541-0.431-1.034-0.826-1.431s-0.888-0.683-1.429-0.83c-2.004-0.55-10.024-0.559-10.024-0.559s-8.018-0.009-10.024 0.517c-0.54 0.154-1.032 0.444-1.428 0.842s-0.683 0.892-0.833 1.433c-0.529 2.004-0.534 6.162-0.534 6.162s-0.005 4.178 0.52 6.162c0.294 1.097 1.158 1.964 2.257 2.259 2.025 0.55 10.022 0.559 10.022 0.559s8.019 0.009 10.024-0.516c0.541-0.147 1.034-0.432 1.431-0.828s0.683-0.888 0.831-1.429c0.53-2.003 0.534-6.159 0.534-6.159s0.026-4.179-0.521-6.184zM13.75 19.92l0.006-7.68 6.665 3.846-6.671 3.834z"></path>
    </symbol>
  </defs>
</svg>